# xmcd
#
# Track frame offsets:
# 150
# 13202
# 26084
# 36042
# 54240
# 72421
# 82571
# 102535
# 115862
# 131460
# 144761
# 159314
#
# Disc length: 2331 seconds
#
# Revision: 1
# Processed by: cddbd v1.5.2PL0 Copyright (c) Steve Scherf et al.
# Submitted via: Axialis_AX_CDPlayer 2.6
#
DISCID=9009190c
DTITLE=Various Artist - Texas Unplugged Volume 2 (incl. artists names for e
DTITLE=ach \ntrack)
DYEAR=2006
DGENRE=Country
TTITLE0=I'm Still Missing You - The Derailers
TTITLE1=One Tiny Sin - The Sidehill Gougers
TTITLE2=As Long as the Bottle's Full - Dale Watson
TTITLE3=Rio Grande Runs Red - Johnny Bush
TTITLE4=Dog Days Blues - Davin James
TTITLE5=Duct Tape - Morrison-Williams
TTITLE6=Texas Love and War - Rusty Wier
TTITLE7=You and Me and San Antone - Wild Horses
TTITLE8=Turtle Bayou Turnaround - C. Cashdollar and C. Wonderland
TTITLE9=The Rodeo Song - Max Stalling
TTITLE10=The Path to Your Door - Walt Wilkins
TTITLE11=Carseat - Two Tons Of Steel
EXTD=
EXTT0=
EXTT1=
EXTT2=
EXTT3=
EXTT4=
EXTT5=
EXTT6=
EXTT7=
EXTT8=
EXTT9=
EXTT10=
EXTT11=
PLAYORDER=
